<?xml version="1.0" encoding="UTF-8" ?>
<!DOCTYPE svg PUBLIC "-//W3C//DTD SVG 1.1//EN" "http://www.w3.org/Graphics/SVG/1.1/DTD/svg11.dtd">
<svg width="1067pt" height="1067pt" viewBox="0 0 1067 1067" version="1.1" xmlns="http://www.w3.org/2000/svg">
<g id="#45413cff">
<path fill="#45413c" opacity="1.00" d=" M 280.92 87.38 C 391.93 67.29 504.45 56.94 616.99 50.38 C 631.95 49.23 645.38 56.68 658.66 62.37 C 756.84 105.44 855.55 147.37 952.26 193.70 C 963.15 198.66 971.55 209.73 971.64 221.94 C 971.79 231.92 973.00 242.09 970.58 251.91 C 968.29 261.11 961.72 269.31 952.93 273.02 C 943.75 277.02 933.61 277.71 924.05 280.42 C 924.37 285.58 924.14 290.82 924.92 295.94 C 950.05 312.32 975.56 328.17 1000.98 344.10 C 1007.39 348.52 1012.11 355.40 1013.85 362.99 C 1015.08 370.56 1014.76 378.31 1014.61 385.96 C 1014.33 395.40 1010.03 404.66 1002.51 410.48 C 992.32 418.30 978.96 418.75 967.14 422.53 C 970.61 458.93 968.19 495.94 959.61 531.50 C 957.09 540.79 955.46 550.69 949.77 558.71 C 942.81 568.74 932.55 575.73 922.57 582.45 C 889.53 605.02 854.54 624.62 818.82 642.60 C 860.91 661.53 903.21 680.05 944.75 700.18 C 953.56 704.31 963.27 708.94 967.87 718.06 C 973.24 728.91 971.66 741.34 971.74 753.02 C 972.13 768.80 959.79 783.72 944.06 785.85 C 937.35 787.43 930.58 788.79 923.93 790.58 C 924.24 795.70 924.45 800.82 924.77 805.94 C 949.91 821.91 975.02 837.95 1000.35 853.61 C 1007.71 858.29 1012.93 866.22 1014.14 874.88 C 1015.22 882.22 1014.56 889.66 1014.57 897.05 C 1014.15 911.37 1002.60 923.87 988.91 927.11 C 810.43 971.27 628.26 1000.27 445.05 1015.40 C 433.89 1016.64 422.02 1018.02 411.38 1013.49 C 359.91 991.81 308.82 969.18 258.79 944.35 C 214.66 922.47 171.46 898.42 131.41 869.66 C 121.22 862.59 113.32 852.05 110.09 840.02 C 94.55 784.83 93.75 725.59 107.63 669.96 C 110.24 659.35 116.22 649.87 123.50 641.85 C 110.30 639.06 97.25 635.62 84.13 632.50 C 78.11 631.20 71.94 629.77 66.80 626.21 C 57.31 620.20 51.34 609.18 51.77 597.92 C 52.22 589.07 50.59 579.72 54.42 571.40 C 57.38 564.22 63.17 558.61 70.02 555.12 C 94.11 540.34 117.80 524.93 141.72 509.90 C 142.01 504.67 142.30 499.45 142.40 494.23 C 131.17 491.01 118.70 490.94 108.72 484.23 C 99.57 478.05 94.36 466.94 94.62 455.99 C 94.75 445.45 93.35 434.43 97.41 424.40 C 100.31 416.85 106.86 411.40 113.94 407.90 C 131.27 399.41 148.67 391.06 166.29 383.19 C 153.09 374.68 139.86 366.17 127.46 356.51 C 118.35 349.26 112.13 338.75 109.44 327.48 C 95.99 278.14 94.23 225.69 104.22 175.54 C 106.53 164.82 108.35 153.65 114.25 144.17 C 119.47 135.36 127.11 127.90 136.32 123.33 C 140.49 121.23 145.02 120.01 149.46 118.64 C 192.56 105.43 236.59 95.46 280.92 87.38 M 608.83 77.37 C 602.64 78.19 596.32 76.95 590.19 78.25 C 585.05 79.31 579.73 78.13 574.61 79.44 C 563.39 80.11 552.23 81.64 540.98 81.81 C 532.01 82.80 523.03 83.72 514.00 83.82 C 508.34 85.20 502.48 84.11 496.83 85.46 C 485.51 85.79 474.35 88.36 463.02 88.70 C 443.50 90.78 423.97 92.83 404.48 95.31 C 394.62 96.38 384.85 98.15 374.96 98.91 C 368.01 100.13 361.03 101.24 354.00 101.98 C 336.52 104.99 318.95 107.38 301.47 110.37 C 297.78 111.39 293.96 111.52 290.22 112.23 C 284.86 113.82 279.20 113.80 273.85 115.50 C 255.76 118.54 237.91 122.66 220.01 126.65 C 200.35 131.69 180.51 136.07 161.19 142.32 C 160.97 143.01 160.53 144.39 160.31 145.07 C 161.63 145.94 162.94 146.84 164.30 147.65 C 201.56 168.71 239.00 189.41 276.98 209.12 C 282.86 212.77 289.20 215.55 295.35 218.72 C 313.97 228.13 332.73 237.25 351.32 246.72 C 359.15 250.58 366.74 254.97 374.87 258.22 C 382.38 261.63 389.49 265.92 397.19 268.94 C 401.16 270.61 404.83 272.91 408.89 274.39 C 414.07 276.33 418.68 279.63 424.06 281.05 C 427.71 282.13 431.31 280.27 434.98 280.38 C 441.40 280.73 447.64 278.82 454.08 279.34 C 459.66 278.30 465.33 278.21 471.00 278.34 C 478.67 277.54 486.32 276.24 494.06 276.23 C 497.69 275.55 501.36 275.16 505.06 275.36 C 511.71 274.86 518.28 273.25 524.98 273.35 C 539.58 271.91 554.19 270.21 568.80 268.86 C 591.53 266.46 614.22 263.37 636.91 260.46 C 648.32 259.47 659.58 257.16 670.99 256.08 C 682.35 254.08 693.76 252.37 705.16 250.62 C 755.84 242.63 806.29 233.33 856.46 222.61 C 862.46 221.69 868.10 219.18 874.14 218.49 C 881.91 218.00 889.17 214.74 896.93 214.05 C 904.51 212.26 912.09 210.49 919.73 208.98 C 918.76 205.66 915.18 204.77 912.49 203.30 C 883.79 190.35 855.20 177.17 826.27 164.72 C 795.57 151.06 765.05 137.01 734.13 123.85 C 702.38 109.85 670.46 96.22 638.76 82.12 C 634.35 79.88 629.63 78.32 624.91 76.93 C 619.58 76.30 614.11 76.39 608.83 77.37 M 134.62 162.20 L 135.07 162.73 C 131.86 167.39 131.95 173.22 130.36 178.47 C 128.22 188.54 126.74 198.76 125.66 208.98 C 125.98 213.01 125.32 216.98 124.77 220.95 C 124.71 233.95 124.69 246.95 124.81 259.94 C 126.45 273.64 127.20 287.56 130.84 300.93 C 131.67 306.28 132.83 311.57 134.21 316.80 C 135.49 322.49 137.21 328.39 141.28 332.76 C 147.98 339.97 156.96 344.34 164.62 350.37 C 184.15 363.06 204.00 375.32 224.52 386.38 C 230.68 390.33 237.66 392.77 243.81 396.75 C 262.08 406.45 280.53 415.84 299.15 424.87 C 306.03 427.36 312.33 431.19 319.24 433.63 C 344.03 445.48 369.30 456.32 394.36 467.63 C 396.17 468.53 398.14 469.04 400.14 469.37 C 400.60 464.86 399.75 460.42 398.72 456.06 C 397.67 449.02 395.88 442.05 396.11 434.88 C 392.58 427.43 395.14 419.03 393.83 411.16 C 392.69 405.17 393.31 399.06 393.15 393.01 C 393.27 387.32 392.72 381.58 393.72 375.95 C 394.47 371.99 394.00 367.96 394.18 363.97 C 396.04 345.13 399.39 326.43 403.92 308.05 C 404.33 306.07 404.81 304.08 404.86 302.05 C 404.50 300.18 402.29 299.94 400.88 299.20 C 395.94 297.40 391.49 294.53 386.65 292.52 C 378.20 289.20 370.54 284.19 362.07 280.92 C 350.99 275.70 340.30 269.63 328.95 264.99 C 318.63 259.68 307.83 255.28 297.82 249.39 C 289.18 244.94 280.40 240.76 271.80 236.24 C 267.19 233.43 262.32 231.11 257.51 228.69 C 220.67 209.56 184.79 188.67 148.75 168.09 C 144.91 166.09 141.33 162.71 136.79 162.76 L 137.05 162.13 C 136.14 160.87 135.33 160.89 134.62 162.20 M 937.97 230.96 C 870.11 246.99 801.85 261.62 732.93 272.33 C 718.37 275.38 703.54 276.86 688.92 279.58 C 680.88 280.23 672.99 281.95 665.01 283.04 C 652.98 284.57 640.98 286.35 628.95 287.81 C 588.12 293.47 547.09 297.57 506.07 301.45 C 491.36 302.60 476.69 304.53 461.94 305.00 C 456.14 306.38 450.15 305.13 444.34 306.36 C 440.34 307.08 436.25 306.71 432.21 306.82 C 428.02 325.52 424.77 344.45 423.49 363.58 C 421.85 371.30 423.68 379.28 421.96 387.00 C 421.64 394.66 421.64 402.38 421.97 410.05 C 423.64 417.71 421.94 425.62 423.55 433.30 C 424.36 448.49 427.17 463.49 429.52 478.50 C 434.17 479.70 439.06 479.38 443.75 478.59 C 447.77 477.82 451.92 478.67 455.94 477.77 C 459.25 477.04 462.65 477.33 466.01 477.23 C 475.31 475.94 484.65 474.83 494.01 474.26 C 525.33 470.53 556.75 467.43 588.04 463.42 C 649.27 455.84 710.45 447.42 771.06 435.75 C 824.72 425.61 878.47 415.93 931.70 403.70 C 947.20 399.87 962.66 395.88 978.19 392.22 C 981.62 391.06 986.36 390.77 987.63 386.70 C 988.96 381.56 987.93 376.13 988.19 370.87 C 970.17 375.47 952.00 379.43 933.92 383.75 C 896.15 392.70 858.30 401.41 820.12 408.44 C 766.26 418.92 712.21 428.59 657.94 436.62 C 646.29 437.66 634.77 439.78 623.18 441.28 C 586.75 446.25 550.27 450.87 513.70 454.50 C 502.60 455.27 491.56 457.72 480.40 456.50 C 476.10 455.30 472.00 453.26 468.27 450.82 C 462.98 446.02 457.14 440.92 455.37 433.69 C 453.83 427.24 453.01 420.63 452.27 414.06 C 452.13 398.04 452.25 382.03 452.22 366.01 C 452.97 356.91 453.75 347.12 459.64 339.67 C 463.39 335.72 467.01 331.40 471.96 328.91 C 475.68 327.01 479.73 325.63 483.92 325.33 C 505.67 323.48 527.34 320.75 549.05 318.44 C 555.16 318.86 560.94 316.64 566.98 316.18 C 591.33 313.35 615.56 309.72 639.86 306.52 C 648.79 304.64 657.92 304.12 666.87 302.37 C 695.64 297.98 724.35 293.21 752.99 288.11 C 815.81 276.55 878.52 264.18 940.71 249.52 C 942.98 248.67 945.21 246.69 945.15 244.07 C 945.35 239.41 945.48 234.72 944.86 230.09 C 942.53 230.13 940.21 230.34 937.97 230.96 M 485.86 352.27 C 482.89 352.51 480.14 354.92 480.04 357.99 C 477.73 380.23 477.96 402.73 480.52 424.94 C 480.84 428.47 484.61 430.83 487.96 430.41 C 624.88 416.57 760.99 394.86 895.46 365.64 C 898.98 354.47 900.85 342.67 899.88 330.95 C 898.73 316.23 898.37 301.46 897.55 286.73 C 761.79 316.76 624.18 338.25 485.86 352.27 M 926.63 328.53 C 925.29 333.57 926.28 338.84 925.96 343.99 C 926.58 349.00 925.48 353.93 924.99 358.90 C 936.52 355.78 948.44 354.06 959.72 350.10 C 952.81 345.04 945.28 340.86 938.17 336.10 C 934.52 333.36 932.06 327.20 926.63 328.53 M 190.81 400.97 C 180.28 406.24 169.31 410.59 158.80 415.89 C 154.74 417.95 150.12 418.96 146.67 422.08 C 185.30 430.97 224.02 439.71 263.00 447.05 C 268.45 448.41 274.12 448.78 279.51 450.41 C 283.23 451.17 287.11 451.00 290.74 452.21 C 292.42 452.78 294.20 452.67 295.92 452.38 C 294.20 449.13 290.34 449.08 287.37 447.73 C 279.10 443.73 271.00 439.38 262.67 435.52 C 256.27 433.26 250.81 429.13 244.64 426.39 C 228.43 418.53 212.50 410.10 196.94 401.02 C 195.08 399.76 192.72 399.94 190.81 400.97 M 928.90 431.42 C 877.55 442.90 825.91 453.17 774.11 462.42 C 766.49 463.71 760.02 468.14 753.13 471.33 C 734.74 480.76 715.92 489.30 697.47 498.60 C 690.42 501.41 683.86 505.27 676.81 508.08 C 671.50 510.28 666.72 513.69 661.19 515.38 C 666.78 535.87 670.54 556.88 672.17 578.06 C 673.70 586.68 672.06 595.47 673.44 604.10 C 674.03 607.87 673.94 611.72 673.37 615.49 C 672.38 621.63 673.12 627.86 672.83 634.05 C 671.95 643.70 670.70 653.32 669.18 662.90 C 668.27 669.10 666.43 675.33 667.48 681.65 C 669.33 681.53 671.28 681.66 673.01 680.83 C 701.46 668.53 729.88 656.15 757.80 642.73 C 766.72 639.21 774.87 634.03 783.83 630.59 C 794.13 625.27 804.78 620.57 814.79 614.69 C 852.28 595.71 888.65 574.31 922.75 549.70 C 931.22 541.82 933.05 529.77 935.02 518.94 C 935.68 513.05 938.03 507.52 938.47 501.60 C 940.36 489.81 941.12 477.88 942.15 466.00 C 941.74 453.77 943.28 441.36 940.39 429.33 C 936.44 429.31 932.69 430.55 928.90 431.42 M 121.04 444.00 C 120.99 448.02 120.77 452.06 121.08 456.08 C 121.41 458.55 122.15 461.45 124.75 462.45 C 130.95 465.33 137.98 465.42 144.47 467.38 C 242.50 489.90 341.47 508.28 441.08 522.22 C 444.49 522.65 447.40 525.02 450.92 524.89 C 455.55 524.96 460.22 524.56 464.80 525.45 C 500.45 530.34 536.22 534.38 572.01 538.02 C 580.91 539.25 590.51 539.35 598.21 544.59 C 606.28 550.18 612.50 559.13 613.27 569.09 C 614.20 575.35 613.61 581.72 614.80 587.97 C 614.77 596.97 615.22 605.98 614.84 614.99 C 614.75 618.66 613.62 622.26 613.98 625.96 C 614.61 631.34 612.90 636.58 612.71 641.94 C 611.15 650.65 606.31 658.82 599.31 664.26 C 594.87 666.73 590.36 669.40 585.34 670.49 C 580.50 671.12 575.57 671.01 570.76 670.27 C 490.83 662.37 411.20 651.31 331.99 637.96 C 315.39 634.67 298.69 631.94 282.04 628.91 C 263.92 625.22 245.67 622.25 227.54 618.59 C 180.05 609.43 133.09 597.85 86.01 586.82 C 83.43 585.94 80.86 584.95 78.08 585.03 C 77.17 590.63 77.36 596.65 79.90 601.82 C 82.14 604.40 85.72 605.09 88.86 606.00 C 105.00 609.43 120.89 613.95 136.97 617.69 C 164.21 623.88 191.55 629.71 218.97 635.09 C 236.97 638.17 254.80 642.11 272.78 645.33 C 304.53 650.84 336.12 657.36 368.01 662.03 C 433.79 671.88 499.85 679.89 565.97 687.00 C 577.90 687.89 589.73 689.93 601.67 690.50 C 609.11 691.34 616.54 692.41 624.05 692.30 C 628.35 693.03 632.69 693.52 637.07 693.17 C 637.31 687.02 638.88 681.03 639.73 674.97 C 641.40 663.09 643.04 651.18 643.36 639.20 C 644.73 632.85 643.72 626.38 644.11 619.96 C 644.45 610.28 643.53 600.61 644.09 590.94 C 643.71 586.60 642.88 582.30 643.09 577.92 C 641.34 561.01 638.91 544.14 635.40 527.49 C 634.94 525.11 634.14 522.83 633.16 520.64 C 628.53 519.60 623.76 519.84 619.06 519.90 C 614.67 520.05 610.39 518.73 606.01 518.87 C 600.96 519.01 596.04 517.47 590.99 517.95 C 581.07 516.44 570.97 516.96 561.07 515.20 C 531.64 513.10 502.37 509.26 473.04 506.24 C 466.40 505.21 459.73 504.52 453.00 504.86 C 446.28 504.22 439.74 506.56 433.03 506.02 C 427.60 505.48 422.05 506.78 416.74 505.21 C 408.88 502.97 401.80 498.63 394.01 496.20 C 383.14 493.75 372.01 492.67 361.02 490.84 C 288.06 479.39 215.51 465.30 143.58 448.58 C 136.08 447.01 128.76 444.31 121.04 444.00 M 592.01 489.71 C 590.22 490.00 587.79 489.24 586.69 491.15 C 601.16 491.56 615.55 493.38 630.02 493.98 C 635.32 493.98 640.98 495.59 645.95 493.04 C 655.88 488.66 665.83 484.23 675.40 479.11 C 647.53 482.03 619.91 487.07 592.01 489.71 M 168.91 500.61 C 168.08 515.43 167.74 530.29 166.61 545.10 C 165.71 556.71 167.32 568.51 171.17 579.49 C 305.79 608.54 441.96 630.53 579.01 644.14 C 582.62 644.76 585.95 641.60 586.03 638.05 C 588.50 616.43 588.70 594.54 586.59 572.88 C 586.40 570.98 586.10 568.78 584.38 567.62 C 581.08 565.36 576.83 565.66 573.03 565.14 C 437.22 551.50 302.25 529.73 168.91 500.61 M 114.52 558.62 C 112.22 560.15 109.16 560.55 107.40 562.82 C 106.94 566.64 111.56 566.24 114.08 566.44 C 123.14 568.13 132.00 571.04 141.16 572.26 C 141.33 568.50 140.84 564.77 140.29 561.06 C 139.52 555.12 141.13 548.96 139.27 543.16 C 130.85 548.04 122.85 553.60 114.52 558.62 M 158.57 653.30 C 159.53 654.05 160.52 654.80 161.57 655.45 C 212.41 684.94 264.17 712.86 316.63 739.36 C 350.91 756.38 385.12 773.55 420.17 788.95 C 422.28 789.93 424.52 790.99 426.93 790.66 C 590.54 780.61 753.33 757.05 912.99 719.92 C 915.48 719.29 918.18 719.13 920.38 717.67 C 876.47 697.08 832.12 677.42 787.82 657.69 C 746.97 677.07 705.73 695.64 664.04 713.13 C 658.08 715.49 652.33 718.65 645.93 719.63 C 638.66 720.71 631.30 719.89 624.06 719.09 C 471.45 706.73 319.65 684.31 169.98 652.01 C 166.14 651.06 162.27 652.34 158.57 653.30 M 134.99 670.76 C 128.50 693.92 124.93 717.91 124.40 741.95 C 123.98 766.13 125.80 790.47 131.26 814.07 C 133.03 823.12 134.21 832.70 139.32 840.62 C 142.81 846.18 148.76 849.33 153.87 853.17 C 183.05 873.46 213.82 891.37 245.39 907.66 C 296.07 934.25 348.24 957.87 400.93 980.16 C 398.77 967.48 396.89 954.75 395.01 942.03 C 390.65 898.38 394.05 853.89 405.44 811.51 C 383.99 801.27 362.35 791.40 341.05 780.82 C 270.96 746.83 202.47 709.65 134.99 670.76 M 834.05 763.90 C 701.46 790.48 567.08 808.11 432.14 816.92 C 419.17 873.42 418.67 932.65 429.95 989.48 C 449.34 988.22 468.71 986.56 488.05 984.60 C 541.83 979.05 595.55 972.81 649.12 965.43 C 692.97 959.64 736.60 952.31 780.05 944.02 C 848.51 931.40 917.03 918.44 984.24 900.15 C 990.74 896.29 987.32 887.20 987.82 881.03 C 824.01 922.02 657.09 950.25 489.09 967.00 C 474.03 968.06 458.89 957.69 455.09 942.95 C 452.44 932.18 452.49 920.98 452.06 909.96 C 451.69 895.63 451.75 881.26 453.15 866.99 C 453.84 851.16 467.19 836.97 483.06 835.73 C 529.42 830.75 575.78 825.64 621.96 819.13 C 728.75 804.33 834.80 784.23 939.76 759.65 C 942.54 759.14 944.89 756.81 945.27 753.99 C 945.90 749.12 945.06 744.21 945.21 739.33 C 908.25 747.93 871.27 756.47 834.05 763.90 M 486.86 862.12 C 483.08 862.18 479.50 865.05 479.92 869.10 C 477.68 890.96 478.01 913.06 480.49 934.88 C 480.94 938.32 484.35 941.11 487.87 940.33 C 624.90 926.73 761.10 904.90 895.63 875.54 C 898.92 864.70 900.75 853.32 899.97 841.97 C 898.86 826.90 898.36 811.79 897.59 796.70 C 762.14 826.65 624.86 848.17 486.86 862.12 M 924.65 869.04 C 936.66 866.32 948.65 863.47 960.58 860.42 C 949.58 852.49 937.66 845.92 926.44 838.32 C 926.83 848.59 926.25 858.88 924.65 869.04 Z" />
</g>
<g id="#24cc89ff">
<path fill="#24cc89" opacity="1.00" d=" M 608.83 77.37 C 614.11 76.39 619.58 76.30 624.91 76.93 C 629.63 78.32 634.35 79.88 638.76 82.12 C 670.46 96.22 702.38 109.85 734.13 123.85 C 765.05 137.01 795.57 151.06 826.27 164.72 C 855.20 177.17 883.79 190.35 912.49 203.30 C 915.18 204.77 918.76 205.66 919.73 208.98 C 912.09 210.49 904.51 212.26 896.93 214.05 C 889.17 214.74 881.91 218.00 874.14 218.49 C 868.10 219.18 862.46 221.69 856.46 222.61 C 806.29 233.33 755.84 242.63 705.16 250.62 C 693.76 252.37 682.35 254.08 670.99 256.08 C 659.58 257.16 648.32 259.47 636.91 260.46 C 614.22 263.37 591.53 266.46 568.80 268.86 C 554.19 270.21 539.58 271.91 524.98 273.35 C 518.28 273.25 511.71 274.86 505.06 275.36 C 501.36 275.16 497.69 275.55 494.06 276.23 C 486.32 276.24 478.67 277.54 471.00 278.34 C 465.33 278.21 459.66 278.30 454.08 279.34 C 447.64 278.82 441.40 280.73 434.98 280.38 C 431.31 280.27 427.71 282.13 424.06 281.05 C 418.68 279.63 414.07 276.33 408.89 274.39 C 404.83 272.91 401.16 270.61 397.19 268.94 C 389.49 265.92 382.38 261.63 374.87 258.22 C 366.74 254.97 359.15 250.58 351.32 246.72 C 332.73 237.25 313.97 228.13 295.35 218.72 C 289.20 215.55 282.86 212.77 276.98 209.12 C 239.00 189.41 201.56 168.71 164.30 147.65 C 162.94 146.84 161.63 145.94 160.31 145.07 C 160.53 144.39 160.97 143.01 161.19 142.32 C 180.51 136.07 200.35 131.69 220.01 126.65 C 237.91 122.66 255.76 118.54 273.85 115.50 C 279.20 113.80 284.86 113.82 290.22 112.23 C 293.96 111.52 297.78 111.39 301.47 110.37 C 318.95 107.38 336.52 104.99 354.00 101.98 C 361.03 101.24 368.01 100.13 374.96 98.91 C 384.85 98.15 394.62 96.38 404.48 95.31 C 423.97 92.83 443.50 90.78 463.02 88.70 C 474.35 88.36 485.51 85.79 496.83 85.46 C 502.48 84.11 508.34 85.20 514.00 83.82 C 523.03 83.72 532.01 82.80 540.98 81.81 C 552.23 81.64 563.39 80.11 574.61 79.44 C 579.73 78.13 585.05 79.31 590.19 78.25 C 596.32 76.95 602.64 78.19 608.83 77.37 Z" />
<path fill="#24cc89" opacity="1.00" d=" M 135.07 162.73 C 135.50 162.74 136.36 162.75 136.79 162.76 C 141.33 162.71 144.91 166.09 148.75 168.09 C 184.79 188.67 220.67 209.56 257.51 228.69 C 262.32 231.11 267.19 233.43 271.80 236.24 C 280.40 240.76 289.18 244.94 297.82 249.39 C 307.83 255.28 318.63 259.68 328.95 264.99 C 340.30 269.63 350.99 275.70 362.07 280.92 C 370.54 284.19 378.20 289.20 386.65 292.52 C 391.49 294.53 395.94 297.40 400.88 299.20 C 402.29 299.94 404.50 300.18 404.86 302.05 C 404.81 304.08 404.33 306.07 403.92 308.05 C 399.39 326.43 396.04 345.13 394.18 363.97 C 394.00 367.96 394.47 371.99 393.72 375.95 C 392.72 381.58 393.27 387.32 393.15 393.01 C 393.31 399.06 392.69 405.17 393.83 411.16 C 395.14 419.03 392.58 427.43 396.11 434.88 C 395.88 442.05 397.67 449.02 398.72 456.06 C 399.75 460.42 400.60 464.86 400.14 469.37 C 398.14 469.04 396.17 468.53 394.36 467.63 C 369.30 456.32 344.03 445.48 319.24 433.63 C 312.33 431.19 306.03 427.36 299.15 424.87 C 280.53 415.84 262.08 406.45 243.81 396.75 C 237.66 392.77 230.68 390.33 224.52 386.38 C 204.00 375.32 184.15 363.06 164.62 350.37 C 156.96 344.34 147.98 339.97 141.28 332.76 C 137.21 328.39 135.49 322.49 134.21 316.80 C 132.83 311.57 131.67 306.28 130.84 300.93 C 127.20 287.56 126.45 273.64 124.81 259.94 C 124.69 246.95 124.71 233.95 124.77 220.95 C 125.32 216.98 125.98 213.01 125.66 208.98 C 126.74 198.76 128.22 188.54 130.36 178.47 C 131.95 173.22 131.86 167.39 135.07 162.73 Z" />
<path fill="#24cc89" opacity="1.00" d=" M 937.97 230.96 C 940.21 230.34 942.53 230.13 944.86 230.09 C 945.48 234.72 945.35 239.41 945.15 244.07 C 945.21 246.69 942.98 248.67 940.71 249.52 C 878.52 264.18 815.81 276.55 752.99 288.11 C 724.35 293.21 695.64 297.98 666.87 302.37 C 657.92 304.12 648.79 304.64 639.86 306.52 C 615.56 309.72 591.33 313.35 566.98 316.18 C 560.94 316.64 555.16 318.86 549.05 318.44 C 527.34 320.75 505.67 323.48 483.92 325.33 C 479.73 325.63 475.68 327.01 471.96 328.91 C 467.01 331.40 463.39 335.72 459.64 339.67 C 453.75 347.12 452.97 356.91 452.22 366.01 C 452.25 382.03 452.13 398.04 452.27 414.06 C 453.01 420.63 453.83 427.24 455.37 433.69 C 457.14 440.92 462.98 446.02 468.27 450.82 C 472.00 453.26 476.10 455.30 480.40 456.50 C 491.56 457.72 502.60 455.27 513.70 454.50 C 550.27 450.87 586.75 446.25 623.18 441.28 C 634.77 439.78 646.29 437.66 657.94 436.62 C 712.21 428.59 766.26 418.92 820.12 408.44 C 858.30 401.41 896.15 392.70 933.92 383.75 C 952.00 379.43 970.17 375.47 988.19 370.87 C 987.93 376.13 988.96 381.56 987.63 386.70 C 986.36 390.77 981.62 391.06 978.19 392.22 C 962.66 395.88 947.20 399.87 931.70 403.70 C 878.47 415.93 824.72 425.61 771.06 435.75 C 710.45 447.42 649.27 455.84 588.04 463.42 C 556.75 467.43 525.33 470.53 494.01 474.26 C 484.65 474.83 475.31 475.94 466.01 477.23 C 462.65 477.33 459.25 477.04 455.94 477.77 C 451.92 478.67 447.77 477.82 443.75 478.59 C 439.06 479.38 434.17 479.70 429.52 478.50 C 427.17 463.49 424.36 448.49 423.55 433.30 C 421.94 425.62 423.64 417.71 421.97 410.05 C 421.64 402.38 421.64 394.66 421.96 387.00 C 423.68 379.28 421.85 371.30 423.49 363.58 C 424.77 344.45 428.02 325.52 432.21 306.82 C 436.25 306.71 440.34 307.08 444.34 306.36 C 450.15 305.13 456.14 306.38 461.94 305.00 C 476.69 304.53 491.36 302.60 506.07 301.45 C 547.09 297.57 588.12 293.47 628.95 287.81 C 640.98 286.35 652.98 284.57 665.01 283.04 C 672.99 281.95 680.88 280.23 688.92 279.58 C 703.54 276.86 718.37 275.38 732.93 272.33 C 801.85 261.62 870.11 246.99 937.97 230.96 Z" />
<path fill="#24cc89" opacity="1.00" d=" M 926.63 328.53 C 932.06 327.20 934.52 333.36 938.17 336.10 C 945.28 340.86 952.81 345.04 959.72 350.10 C 948.44 354.06 936.52 355.78 924.99 358.90 C 925.48 353.93 926.58 349.00 925.96 343.99 C 926.28 338.84 925.29 333.57 926.63 328.53 Z" />
</g>
<g id="#ef4d40ff">
<path fill="#ef4d40" opacity="1.00" d=" M 134.62 162.20 C 135.33 160.89 136.14 160.87 137.05 162.13 L 136.79 162.76 C 136.36 162.75 135.50 162.74 135.07 162.73 L 134.62 162.20 Z" />
<path fill="#ef4d40" opacity="1.00" d=" M 190.81 400.97 C 192.72 399.94 195.08 399.76 196.94 401.02 C 212.50 410.10 228.43 418.53 244.64 426.39 C 250.81 429.13 256.27 433.26 262.67 435.52 C 271.00 439.38 279.10 443.73 287.37 447.73 C 290.34 449.08 294.20 449.13 295.92 452.38 C 294.20 452.67 292.42 452.78 290.74 452.21 C 287.11 451.00 283.23 451.17 279.51 450.41 C 274.12 448.78 268.45 448.41 263.00 447.05 C 224.02 439.71 185.30 430.97 146.67 422.08 C 150.12 418.96 154.74 417.95 158.80 415.89 C 169.31 410.59 180.28 406.24 190.81 400.97 Z" />
<path fill="#ef4d40" opacity="1.00" d=" M 928.90 431.42 C 932.69 430.55 936.44 429.31 940.39 429.33 C 943.28 441.36 941.74 453.77 942.15 466.00 C 941.12 477.88 940.36 489.81 938.47 501.60 C 938.03 507.52 935.68 513.05 935.02 518.94 C 933.05 529.77 931.22 541.82 922.75 549.70 C 888.65 574.31 852.28 595.71 814.79 614.69 C 804.78 620.57 794.13 625.27 783.83 630.59 C 774.87 634.03 766.72 639.21 757.80 642.73 C 729.88 656.15 701.46 668.53 673.01 680.83 C 671.28 681.66 669.33 681.53 667.48 681.65 C 666.43 675.33 668.27 669.10 669.18 662.90 C 670.70 653.32 671.95 643.70 672.83 634.05 C 673.12 627.86 672.38 621.63 673.37 615.49 C 673.94 611.72 674.03 607.87 673.44 604.10 C 672.06 595.47 673.70 586.68 672.17 578.06 C 670.54 556.88 666.78 535.87 661.19 515.38 C 666.72 513.69 671.50 510.28 676.81 508.08 C 683.86 505.27 690.42 501.41 697.47 498.60 C 715.92 489.30 734.74 480.76 753.13 471.33 C 760.02 468.14 766.49 463.71 774.11 462.42 C 825.91 453.17 877.55 442.90 928.90 431.42 Z" />
<path fill="#ef4d40" opacity="1.00" d=" M 121.04 444.00 C 128.76 444.31 136.08 447.01 143.58 448.58 C 215.51 465.30 288.06 479.39 361.02 490.84 C 372.01 492.67 383.14 493.75 394.01 496.20 C 401.80 498.63 408.88 502.97 416.74 505.21 C 422.05 506.78 427.60 505.48 433.03 506.02 C 439.74 506.56 446.28 504.22 453.00 504.86 C 459.73 504.52 466.40 505.21 473.04 506.24 C 502.37 509.26 531.64 513.10 561.07 515.20 C 570.97 516.96 581.07 516.44 590.99 517.95 C 596.04 517.47 600.96 519.01 606.01 518.87 C 610.39 518.73 614.67 520.05 619.06 519.90 C 623.76 519.84 628.53 519.60 633.16 520.64 C 634.14 522.83 634.94 525.11 635.40 527.49 C 638.91 544.14 641.34 561.01 643.09 577.92 C 642.88 582.30 643.71 586.60 644.09 590.94 C 643.53 600.61 644.45 610.28 644.11 619.96 C 643.72 626.38 644.73 632.85 643.36 639.20 C 643.04 651.18 641.40 663.09 639.73 674.97 C 638.88 681.03 637.31 687.02 637.07 693.17 C 632.69 693.52 628.35 693.03 624.05 692.30 C 616.54 692.41 609.11 691.34 601.67 690.50 C 589.73 689.93 577.90 687.89 565.97 687.00 C 499.85 679.89 433.79 671.88 368.01 662.03 C 336.12 657.36 304.53 650.84 272.78 645.33 C 254.80 642.11 236.97 638.17 218.97 635.09 C 191.55 629.71 164.21 623.88 136.97 617.69 C 120.89 613.95 105.00 609.43 88.86 606.00 C 85.72 605.09 82.14 604.40 79.90 601.82 C 77.36 596.65 77.17 590.63 78.08 585.03 C 80.86 584.95 83.43 585.94 86.01 586.82 C 133.09 597.85 180.05 609.43 227.54 618.59 C 245.67 622.25 263.92 625.22 282.04 628.91 C 298.69 631.94 315.39 634.67 331.99 637.96 C 411.20 651.31 490.83 662.37 570.76 670.27 C 575.57 671.01 580.50 671.12 585.34 670.49 C 590.36 669.40 594.87 666.73 599.31 664.26 C 606.31 658.82 611.15 650.65 612.71 641.94 C 612.90 636.58 614.61 631.34 613.98 625.96 C 613.62 622.26 614.75 618.66 614.84 614.99 C 615.22 605.98 614.77 596.97 614.80 587.97 C 613.61 581.72 614.20 575.35 613.27 569.09 C 612.50 559.13 606.28 550.18 598.21 544.59 C 590.51 539.35 580.91 539.25 572.01 538.02 C 536.22 534.38 500.45 530.34 464.80 525.45 C 460.22 524.56 455.55 524.96 450.92 524.89 C 447.40 525.02 444.49 522.65 441.08 522.22 C 341.47 508.28 242.50 489.90 144.47 467.38 C 137.98 465.42 130.95 465.33 124.75 462.45 C 122.15 461.45 121.41 458.55 121.08 456.08 C 120.77 452.06 120.99 448.02 121.04 444.00 Z" />
<path fill="#ef4d40" opacity="1.00" d=" M 592.01 489.71 C 619.91 487.07 647.53 482.03 675.40 479.11 C 665.83 484.23 655.88 488.66 645.95 493.04 C 640.98 495.59 635.32 493.98 630.02 493.98 C 615.55 493.38 601.16 491.56 586.69 491.15 C 587.79 489.24 590.22 490.00 592.01 489.71 Z" />
<path fill="#ef4d40" opacity="1.00" d=" M 114.52 558.62 C 122.85 553.60 130.85 548.04 139.27 543.16 C 141.13 548.96 139.52 555.12 140.29 561.06 C 140.84 564.77 141.33 568.50 141.16 572.26 C 132.00 571.04 123.14 568.13 114.08 566.44 C 111.56 566.24 106.94 566.64 107.40 562.82 C 109.16 560.55 112.22 560.15 114.52 558.62 Z" />
</g>
<g id="#f1f7ecff">
<path fill="#f1f7ec" opacity="1.00" d=" M 485.86 352.27 C 624.18 338.25 761.79 316.76 897.55 286.73 C 898.37 301.46 898.73 316.23 899.88 330.95 C 900.85 342.67 898.98 354.47 895.46 365.64 C 760.99 394.86 624.88 416.57 487.96 430.41 C 484.61 430.83 480.84 428.47 480.52 424.94 C 477.96 402.73 477.73 380.23 480.04 357.99 C 480.14 354.92 482.89 352.51 485.86 352.27 Z" />
<path fill="#f1f7ec" opacity="1.00" d=" M 168.91 500.61 C 302.25 529.73 437.22 551.50 573.03 565.14 C 576.83 565.66 581.08 565.36 584.38 567.62 C 586.10 568.78 586.40 570.98 586.59 572.88 C 588.70 594.54 588.50 616.43 586.03 638.05 C 585.95 641.60 582.62 644.76 579.01 644.14 C 441.96 630.53 305.79 608.54 171.17 579.49 C 167.32 568.51 165.71 556.71 166.61 545.10 C 167.74 530.29 168.08 515.43 168.91 500.61 Z" />
<path fill="#f1f7ec" opacity="1.00" d=" M 486.86 862.12 C 624.86 848.17 762.14 826.65 897.59 796.70 C 898.36 811.79 898.86 826.90 899.97 841.97 C 900.75 853.32 898.92 864.70 895.63 875.54 C 761.10 904.90 624.90 926.73 487.87 940.33 C 484.35 941.11 480.94 938.32 480.49 934.88 C 478.01 913.06 477.68 890.96 479.92 869.10 C 479.50 865.05 483.08 862.18 486.86 862.12 Z" />
</g>
<g id="#ffcf51ff">
<path fill="#ffcf51" opacity="1.00" d=" M 158.57 653.30 C 162.27 652.34 166.14 651.06 169.98 652.01 C 319.65 684.31 471.45 706.73 624.06 719.09 C 631.30 719.89 638.66 720.71 645.93 719.63 C 652.33 718.65 658.08 715.49 664.04 713.13 C 705.73 695.64 746.97 677.07 787.82 657.69 C 832.12 677.42 876.47 697.08 920.38 717.67 C 918.18 719.13 915.48 719.29 912.99 719.92 C 753.33 757.05 590.54 780.61 426.93 790.66 C 424.52 790.99 422.28 789.93 420.17 788.95 C 385.12 773.55 350.91 756.38 316.63 739.36 C 264.17 712.86 212.41 684.94 161.57 655.45 C 160.52 654.80 159.53 654.05 158.57 653.30 Z" />
<path fill="#ffcf51" opacity="1.00" d=" M 134.99 670.76 C 202.47 709.65 270.96 746.83 341.05 780.82 C 362.35 791.40 383.99 801.27 405.44 811.51 C 394.05 853.89 390.65 898.38 395.01 942.03 C 396.89 954.75 398.77 967.48 400.93 980.16 C 348.24 957.87 296.07 934.25 245.39 907.66 C 213.82 891.37 183.05 873.46 153.87 853.17 C 148.76 849.33 142.81 846.18 139.32 840.62 C 134.21 832.70 133.03 823.12 131.26 814.07 C 125.80 790.47 123.98 766.13 124.40 741.95 C 124.93 717.91 128.50 693.92 134.99 670.76 Z" />
<path fill="#ffcf51" opacity="1.00" d=" M 834.05 763.90 C 871.27 756.47 908.25 747.93 945.21 739.33 C 945.06 744.21 945.90 749.12 945.27 753.99 C 944.89 756.81 942.54 759.14 939.76 759.65 C 834.80 784.23 728.75 804.33 621.96 819.13 C 575.78 825.64 529.42 830.75 483.06 835.73 C 467.19 836.97 453.84 851.16 453.15 866.99 C 451.75 881.26 451.69 895.63 452.06 909.96 C 452.49 920.98 452.44 932.18 455.09 942.95 C 458.89 957.69 474.03 968.06 489.09 967.00 C 657.09 950.25 824.01 922.02 987.82 881.03 C 987.32 887.20 990.74 896.29 984.24 900.15 C 917.03 918.44 848.51 931.40 780.05 944.02 C 736.60 952.31 692.97 959.64 649.12 965.43 C 595.55 972.81 541.83 979.05 488.05 984.60 C 468.71 986.56 449.34 988.22 429.95 989.48 C 418.67 932.65 419.17 873.42 432.14 816.92 C 567.08 808.11 701.46 790.48 834.05 763.90 Z" />
<path fill="#ffcf51" opacity="1.00" d=" M 924.65 869.04 C 926.25 858.88 926.83 848.59 926.44 838.32 C 937.66 845.92 949.58 852.49 960.58 860.42 C 948.65 863.47 936.66 866.32 924.65 869.04 Z" />
</g>
</svg>
